<svg width="1366" height="743" viewBox="0 0 1366 743" fill="none" xmlns="http://www.w3.org/2000/svg">
<path d="M458.666 141.267V138.067H461.866V141.267H458.666Z" fill="#FF5733"/>
<path d="M458.666 501.867V498.667H461.866V501.867H458.666Z" fill="#FF5733"/>
<path d="M458.666 21.0667V17.8667H461.866V21.0667H458.666Z" fill="#FF5733"/>
<path d="M458.666 381.667V378.467H461.866V381.667H458.666Z" fill="#FF5733"/>
<path d="M458.666 261.467V258.267H461.866V261.467H458.666Z" fill="#FF5733"/>
<path d="M458.666 622.067V618.867H461.866V622.067H458.666Z" fill="#FF5733"/>
<path d="M458.666 742.267V739.067H461.866V742.267H458.666Z" fill="#FF5733"/>
<path d="M128.066 141.267V138.067H131.266V141.267H128.066Z" fill="#FF5733"/>
<path d="M128.066 501.867V498.667H131.266V501.867H128.066Z" fill="#FF5733"/>
<path d="M128.066 21.0667V17.8667H131.266V21.0667H128.066Z" fill="#FF5733"/>
<path d="M128.066 381.667V378.467H131.266V381.667H128.066Z" fill="#FF5733"/>
<path d="M128.066 261.467V258.267H131.266V261.467H128.066Z" fill="#FF5733"/>
<path d="M128.066 622.067V618.867H131.266V622.067H128.066Z" fill="#FF5733"/>
<path d="M128.066 742.267V739.067H131.266V742.267H128.066Z" fill="#FF5733"/>
<path d="M679.066 141.267V138.067H682.266V141.267H679.066Z" fill="#FF5733"/>
<path d="M679.066 501.867V498.667H682.266V501.867H679.066Z" fill="#FF5733"/>
<path d="M679.066 21.0667V17.8667H682.266V21.0667H679.066Z" fill="#FF5733"/>
<path d="M679.066 381.667V378.467H682.266V381.667H679.066Z" fill="#FF5733"/>
<path d="M679.066 261.467V258.267H682.266V261.467H679.066Z" fill="#FF5733"/>
<path d="M679.066 622.067V618.867H682.266V622.067H679.066Z" fill="#FF5733"/>
<path d="M679.066 742.267V739.067H682.266V742.267H679.066Z" fill="#FF5733"/>
<path d="M348.466 141.267V138.067H351.666V141.267H348.466Z" fill="#FF5733"/>
<path d="M348.466 501.867V498.667H351.666V501.867H348.466Z" fill="#FF5733"/>
<path d="M348.466 21.0667V17.8667H351.666V21.0667H348.466Z" fill="#FF5733"/>
<path d="M348.466 381.667V378.467H351.666V381.667H348.466Z" fill="#FF5733"/>
<path d="M348.466 261.467V258.267H351.666V261.467H348.466Z" fill="#FF5733"/>
<path d="M348.466 622.067V618.867H351.666V622.067H348.466Z" fill="#FF5733"/>
<path d="M348.466 742.267V739.067H351.666V742.267H348.466Z" fill="#FF5733"/>
<path d="M17.8656 141.267V138.067H21.0656V141.267H17.8656Z" fill="#FF5733"/>
<path d="M17.8656 501.867V498.667H21.0656V501.867H17.8656Z" fill="#FF5733"/>
<path d="M17.8656 21.0667V17.8667H21.0656V21.0667H17.8656Z" fill="#FF5733"/>
<path d="M17.8656 381.667V378.467H21.0656V381.667H17.8656Z" fill="#FF5733"/>
<path d="M17.8656 261.467V258.267H21.0656V261.467H17.8656Z" fill="#FF5733"/>
<path d="M17.8656 622.067V618.867H21.0656V622.067H17.8656Z" fill="#FF5733"/>
<path d="M17.8656 742.267V739.067H21.0656V742.267H17.8656Z" fill="#FF5733"/>
<path d="M568.866 141.267V138.067H572.066V141.267H568.866Z" fill="#FF5733"/>
<path d="M568.866 501.867V498.667H572.066V501.867H568.866Z" fill="#FF5733"/>
<path d="M568.866 21.0667V17.8667H572.066V21.0667H568.866Z" fill="#FF5733"/>
<path d="M568.866 381.667V378.467H572.066V381.667H568.866Z" fill="#FF5733"/>
<path d="M568.866 261.467V258.267H572.066V261.467H568.866Z" fill="#FF5733"/>
<path d="M568.866 622.067V618.867H572.066V622.067H568.866Z" fill="#FF5733"/>
<path d="M568.866 742.267V739.067H572.066V742.267H568.866Z" fill="#FF5733"/>
<path d="M238.266 141.267V138.067H241.466V141.267H238.266Z" fill="#FF5733"/>
<path d="M238.266 501.867V498.667H241.466V501.867H238.266Z" fill="#FF5733"/>
<path d="M238.266 21.0667V17.8667H241.466V21.0667H238.266Z" fill="#FF5733"/>
<path d="M238.266 381.667V378.467H241.466V381.667H238.266Z" fill="#FF5733"/>
<path d="M238.266 261.467V258.267H241.466V261.467H238.266Z" fill="#FF5733"/>
<path d="M238.266 622.067V618.867H241.466V622.067H238.266Z" fill="#FF5733"/>
<path d="M238.266 742.267V739.067H241.466V742.267H238.266Z" fill="#FF5733"/>
<path d="M1229.67 141.267V138.067H1232.87V141.267H1229.67Z" fill="#FF5733"/>
<path d="M1229.67 501.867V498.667H1232.87V501.867H1229.67Z" fill="#FF5733"/>
<path d="M1229.67 21.0667V17.8667H1232.87V21.0667H1229.67Z" fill="#FF5733"/>
<path d="M1229.67 381.667V378.467H1232.87V381.667H1229.67Z" fill="#FF5733"/>
<path d="M1229.67 261.467V258.267H1232.87V261.467H1229.67Z" fill="#FF5733"/>
<path d="M1229.67 622.067V618.867H1232.87V622.067H1229.67Z" fill="#FF5733"/>
<path d="M1229.67 742.267V739.067H1232.87V742.267H1229.67Z" fill="#FF5733"/>
<path d="M899.066 141.267V138.067H902.266V141.267H899.066Z" fill="#FF5733"/>
<path d="M899.066 501.867V498.667H902.266V501.867H899.066Z" fill="#FF5733"/>
<path d="M899.066 21.0667V17.8667H902.266V21.0667H899.066Z" fill="#FF5733"/>
<path d="M899.066 381.667V378.467H902.266V381.667H899.066Z" fill="#FF5733"/>
<path d="M899.066 261.467V258.267H902.266V261.467H899.066Z" fill="#FF5733"/>
<path d="M899.066 622.067V618.867H902.266V622.067H899.066Z" fill="#FF5733"/>
<path d="M899.066 742.267V739.067H902.266V742.267H899.066Z" fill="#FF5733"/>
<path d="M1119.47 141.267V138.067H1122.67V141.267H1119.47Z" fill="#FF5733"/>
<path d="M1119.47 501.867V498.667H1122.67V501.867H1119.47Z" fill="#FF5733"/>
<path d="M1119.47 21.0667V17.8667H1122.67V21.0667H1119.47Z" fill="#FF5733"/>
<path d="M1119.47 381.667V378.467H1122.67V381.667H1119.47Z" fill="#FF5733"/>
<path d="M1119.47 261.467V258.267H1122.67V261.467H1119.47Z" fill="#FF5733"/>
<path d="M1119.47 622.067V618.867H1122.67V622.067H1119.47Z" fill="#FF5733"/>
<path d="M1119.47 742.267V739.067H1122.67V742.267H1119.47Z" fill="#FF5733"/>
<path d="M788.866 141.267V138.067H792.066V141.267H788.866Z" fill="#FF5733"/>
<path d="M788.866 501.867V498.667H792.066V501.867H788.866Z" fill="#FF5733"/>
<path d="M788.866 21.0667V17.8667H792.066V21.0667H788.866Z" fill="#FF5733"/>
<path d="M788.866 381.667V378.467H792.066V381.667H788.866Z" fill="#FF5733"/>
<path d="M788.866 261.467V258.267H792.066V261.467H788.866Z" fill="#FF5733"/>
<path d="M788.866 622.067V618.867H792.066V622.067H788.866Z" fill="#FF5733"/>
<path d="M788.866 742.267V739.067H792.066V742.267H788.866Z" fill="#FF5733"/>
<path d="M1339.87 141.267V138.067H1343.07V141.267H1339.87Z" fill="#FF5733"/>
<path d="M1339.87 501.867V498.667H1343.07V501.867H1339.87Z" fill="#FF5733"/>
<path d="M1339.87 21.0667V17.8667H1343.07V21.0667H1339.87Z" fill="#FF5733"/>
<path d="M1339.87 381.667V378.467H1343.07V381.667H1339.87Z" fill="#FF5733"/>
<path d="M1339.87 261.467V258.267H1343.07V261.467H1339.87Z" fill="#FF5733"/>
<path d="M1339.87 622.067V618.867H1343.07V622.067H1339.87Z" fill="#FF5733"/>
<path d="M1339.87 742.267V739.067H1343.07V742.267H1339.87Z" fill="#FF5733"/>
<path d="M1009.27 141.267V138.067H1012.47V141.267H1009.27Z" fill="#FF5733"/>
<path d="M1009.27 501.867V498.667H1012.47V501.867H1009.27Z" fill="#FF5733"/>
<path d="M1009.27 21.0667V17.8667H1012.47V21.0667H1009.27Z" fill="#FF5733"/>
<path d="M1009.27 381.667V378.467H1012.47V381.667H1009.27Z" fill="#FF5733"/>
<path d="M1009.27 261.467V258.267H1012.47V261.467H1009.27Z" fill="#FF5733"/>
<path d="M1009.27 622.067V618.867H1012.47V622.067H1009.27Z" fill="#FF5733"/>
<path d="M1009.27 742.267V739.067H1012.47V742.267H1009.27Z" fill="#FF5733"/>
</svg>
