<svg width="111" height="99" viewBox="0 0 111 99" fill="none" xmlns="http://www.w3.org/2000/svg">
<path d="M75.6787 25.4071V23.771H77.3148V25.4071H75.6787Z" fill="#F52B00"/>
<path d="M75.6787 69.3154V67.6793H77.3148V69.3154H75.6787Z" fill="#F52B00"/>
<path d="M75.6787 10.771V9.1349H77.3148V10.771H75.6787Z" fill="#F52B00"/>
<path d="M75.6787 54.6793V53.0432H77.3148V54.6793H75.6787Z" fill="#F52B00"/>
<path d="M75.6787 40.0432V38.4071H77.3148V40.0432H75.6787Z" fill="#F52B00"/>
<path d="M75.6787 83.9515V82.3154H77.3148V83.9515H75.6787Z" fill="#F52B00"/>
<path d="M75.6787 98.5876V96.9516H77.3148V98.5876H75.6787Z" fill="#F52B00"/>
<path d="M25.7704 25.4071V23.771H27.4065V25.4071H25.7704Z" fill="#F52B00"/>
<path d="M25.7704 69.3154V67.6793H27.4065V69.3154H25.7704Z" fill="#F52B00"/>
<path d="M25.7704 10.771V9.1349H27.4065V10.771H25.7704Z" fill="#F52B00"/>
<path d="M25.7704 54.6793V53.0432H27.4065V54.6793H25.7704Z" fill="#F52B00"/>
<path d="M25.7704 40.0432V38.4071H27.4065V40.0432H25.7704Z" fill="#F52B00"/>
<path d="M25.7704 83.9515V82.3154H27.4065V83.9515H25.7704Z" fill="#F52B00"/>
<path d="M25.7704 98.5876V96.9516H27.4065V98.5876H25.7704Z" fill="#F52B00"/>
<path d="M108.951 25.4071V23.771H110.587V25.4071H108.951Z" fill="#F52B00"/>
<path d="M108.951 69.3154V67.6793H110.587V69.3154H108.951Z" fill="#F52B00"/>
<path d="M108.951 10.771V9.1349H110.587V10.771H108.951Z" fill="#F52B00"/>
<path d="M108.951 54.6793V53.0432H110.587V54.6793H108.951Z" fill="#F52B00"/>
<path d="M108.951 40.0432V38.4071H110.587V40.0432H108.951Z" fill="#F52B00"/>
<path d="M108.951 83.9515V82.3154H110.587V83.9515H108.951Z" fill="#F52B00"/>
<path d="M108.951 98.5876V96.9516H110.587V98.5876H108.951Z" fill="#F52B00"/>
<path d="M59.0426 25.4071V23.771H60.6787V25.4071H59.0426Z" fill="#F52B00"/>
<path d="M59.0426 69.3154V67.6793H60.6787V69.3154H59.0426Z" fill="#F52B00"/>
<path d="M59.0426 10.771V9.1349H60.6787V10.771H59.0426Z" fill="#F52B00"/>
<path d="M59.0426 54.6793V53.0432H60.6787V54.6793H59.0426Z" fill="#F52B00"/>
<path d="M59.0426 40.0432V38.4071H60.6787V40.0432H59.0426Z" fill="#F52B00"/>
<path d="M59.0426 83.9515V82.3154H60.6787V83.9515H59.0426Z" fill="#F52B00"/>
<path d="M59.0426 98.5876V96.9516H60.6787V98.5876H59.0426Z" fill="#F52B00"/>
<path d="M9.13431 25.4071V23.771H10.7704V25.4071H9.13431Z" fill="#F52B00"/>
<path d="M9.13431 69.3154V67.6793H10.7704V69.3154H9.13431Z" fill="#F52B00"/>
<path d="M9.13431 10.771V9.13489H10.7704V10.771H9.13431Z" fill="#F52B00"/>
<path d="M9.13431 54.6793V53.0432H10.7704V54.6793H9.13431Z" fill="#F52B00"/>
<path d="M9.13431 40.0432V38.4071H10.7704V40.0432H9.13431Z" fill="#F52B00"/>
<path d="M9.13431 83.9515V82.3154H10.7704V83.9515H9.13431Z" fill="#F52B00"/>
<path d="M9.13431 98.5876V96.9516H10.7704V98.5876H9.13431Z" fill="#F52B00"/>
<path d="M92.3148 25.4071V23.771H93.9508V25.4071H92.3148Z" fill="#F52B00"/>
<path d="M92.3148 69.3154V67.6793H93.9508V69.3154H92.3148Z" fill="#F52B00"/>
<path d="M92.3148 10.771V9.1349H93.9508V10.771H92.3148Z" fill="#F52B00"/>
<path d="M92.3148 54.6793V53.0432H93.9508V54.6793H92.3148Z" fill="#F52B00"/>
<path d="M92.3148 40.0432V38.4071H93.9508V40.0432H92.3148Z" fill="#F52B00"/>
<path d="M92.3148 83.9515V82.3154H93.9508V83.9515H92.3148Z" fill="#F52B00"/>
<path d="M92.3148 98.5876V96.9516H93.9508V98.5876H92.3148Z" fill="#F52B00"/>
<path d="M42.4065 25.4071V23.771H44.0426V25.4071H42.4065Z" fill="#F52B00"/>
<path d="M42.4065 69.3154V67.6793H44.0426V69.3154H42.4065Z" fill="#F52B00"/>
<path d="M42.4065 10.771V9.1349H44.0426V10.771H42.4065Z" fill="#F52B00"/>
<path d="M42.4065 54.6793V53.0432H44.0426V54.6793H42.4065Z" fill="#F52B00"/>
<path d="M42.4065 40.0432V38.4071H44.0426V40.0432H42.4065Z" fill="#F52B00"/>
<path d="M42.4065 83.9515V82.3154H44.0426V83.9515H42.4065Z" fill="#F52B00"/>
<path d="M42.4065 98.5876V96.9516H44.0426V98.5876H42.4065Z" fill="#F52B00"/>
</svg>
